<?xml version="1.0" encoding="UTF-8" standalone="no"?>
<svg id="svg2" xmlns:inkscape="http://www.inkscape.org/namespaces/inkscape" xmlns:rdf="http://www.w3.org/1999/02/22-rdf-syntax-ns#" xmlns="http://www.w3.org/2000/svg" inkscape:version="0.91 r13725" xml:space="preserve" height="26.185" viewBox="0 0 25.36244 26.18511" width="25.362" version="1.1" xmlns:cc="http://creativecommons.org/ns#" xmlns:dc="http://purl.org/dc/elements/1.1/" sodipodi:docname="verdes-bird.svg" xmlns:sodipodi="http://sodipodi.sourceforge.net/DTD/sodipodi-0.dtd"><defs id="defs6"><clipPath id="clipPath1250" clipPathUnits="userSpaceOnUse"><path id="path1252" d="m4659.5 2777.3h-320.7c9.07 20.7 22.03 39.3 37.97 54.89h244.76c15.94-15.59 28.9-34.19 37.97-54.89" inkscape:connector-curvature="0"/></clipPath><clipPath id="clipPath1256" clipPathUnits="userSpaceOnUse"><path id="path1258" d="m4542.5 2793.7v-2.5h2.5v2.5h-2.5" clip-rule="evenodd" inkscape:connector-curvature="0"/></clipPath><clipPath id="clipPath1290" clipPathUnits="userSpaceOnUse"><path id="path1292" d="m4540 2777h5v5h-5v-5z" clip-rule="evenodd" inkscape:connector-curvature="0"/></clipPath><clipPath id="clipPath1304" clipPathUnits="userSpaceOnUse"><path id="path1306" d="m4545 2777h5v5h-5v-5z" clip-rule="evenodd" inkscape:connector-curvature="0"/></clipPath><clipPath id="clipPath1378" clipPathUnits="userSpaceOnUse"><path id="path1380" d="m4659.5 2777.3h-320.7c9.07 20.7 22.03 39.3 37.97 54.89h244.76c15.94-15.59 28.9-34.19 37.97-54.89" inkscape:connector-curvature="0"/></clipPath><clipPath id="clipPath1384" clipPathUnits="userSpaceOnUse"><path id="path1386" d="m4630 2786.2v-5h2.5v5h-2.5m2.5-5v-5h2.5v5h-2.5" clip-rule="evenodd" inkscape:connector-curvature="0"/></clipPath><clipPath id="clipPath1398" clipPathUnits="userSpaceOnUse"><path id="path1400" d="m4630 2777h3v5h-3v-5z" clip-rule="evenodd" inkscape:connector-curvature="0"/></clipPath><clipPath id="clipPath2024" clipPathUnits="userSpaceOnUse"><path id="path2026" d="m5560 2483h3v6h-3v-6z" clip-rule="evenodd" inkscape:connector-curvature="0"/></clipPath><clipPath id="clipPath2058" clipPathUnits="userSpaceOnUse"><path id="path2060" d="m5560 2469h3v5h-3v-5z" clip-rule="evenodd" inkscape:connector-curvature="0"/></clipPath><clipPath id="clipPath2072" clipPathUnits="userSpaceOnUse"><path id="path2074" d="m5720.8 2469h-245.23v55.8h218.26c11.29-17.18 20.41-35.91 26.97-55.8" inkscape:connector-curvature="0"/></clipPath><clipPath id="clipPath2078" clipPathUnits="userSpaceOnUse"><path id="path2080" d="m5562.5 2473.7v-5h2.5v5h-2.5" clip-rule="evenodd" inkscape:connector-curvature="0"/></clipPath><clipPath id="clipPath2554" clipPathUnits="userSpaceOnUse"><path id="path2556" d="m4143 1286h20v3h-20v-3z" clip-rule="evenodd" inkscape:connector-curvature="0"/></clipPath><clipPath id="clipPath2748" clipPathUnits="userSpaceOnUse"><path id="path2750" d="m4295 1286h15v3h-15v-3z" clip-rule="evenodd" inkscape:connector-curvature="0"/></clipPath><clipPath id="clipPath2762" clipPathUnits="userSpaceOnUse"><path id="path2764" d="m4300 1341h3v6h-3v-6z" clip-rule="evenodd" inkscape:connector-curvature="0"/></clipPath><clipPath id="clipPath2776" clipPathUnits="userSpaceOnUse"><path id="path2778" d="m4534.4 1278.2h-390.5v68.8h431.2c-11.36-24.3-25.01-47.3-40.7-68.8" inkscape:connector-curvature="0"/></clipPath><clipPath id="clipPath2782" clipPathUnits="userSpaceOnUse"><path id="path2784" d="m4302.5 1346.2v-5h7.5v5h-7.5" clip-rule="evenodd" inkscape:connector-curvature="0"/></clipPath><clipPath id="clipPath2976" clipPathUnits="userSpaceOnUse"><path id="path2978" d="m4410 1346h3v2h-3v-2z" clip-rule="evenodd" inkscape:connector-curvature="0"/></clipPath><clipPath id="clipPath3150" clipPathUnits="userSpaceOnUse"><path id="path3152" d="m4534.4 1278.2h-390.5v68.8h431.2c-11.36-24.3-25.01-47.3-40.7-68.8" inkscape:connector-curvature="0"/></clipPath><clipPath id="clipPath3156" clipPathUnits="userSpaceOnUse"><path id="path3158" d="m4460 1336.2v-10h2.5v5h2.5v5h-5" clip-rule="evenodd" inkscape:connector-curvature="0"/></clipPath><clipPath id="clipPath4334" clipPathUnits="userSpaceOnUse"><path id="path4336" d="m5020 1757h3v2h-3v-2z" clip-rule="evenodd" inkscape:connector-curvature="0"/></clipPath><clipPath id="clipPath4348" clipPathUnits="userSpaceOnUse"><path id="path4350" d="m5242.6 1757.9h-289.49v54.9h233.97l73.17-11.9c-3.93-15.27-9.91-29.7-17.65-43m18.82 47.87-43.2 7.03h44.63c-0.43-2.36-0.91-4.71-1.43-7.03" inkscape:connector-curvature="0"/></clipPath><clipPath id="clipPath4354" clipPathUnits="userSpaceOnUse"><path id="path4356" d="m5022.5 1758.7v-2.5h2.5v2.5h-2.5" clip-rule="evenodd" inkscape:connector-curvature="0"/></clipPath><clipPath id="clipPath5162" clipPathUnits="userSpaceOnUse"><path id="path5164" d="m5260.2 1800.9-73.17 11.9h31.14l43.2-7.03c-0.37-1.63-0.76-3.26-1.17-4.87" inkscape:connector-curvature="0"/></clipPath><clipPath id="clipPath5168" clipPathUnits="userSpaceOnUse"><path id="path5170" d="m5190 1816.2v-5h2.5v5h-2.5" clip-rule="evenodd" inkscape:connector-curvature="0"/></clipPath><clipPath id="clipPath5868" clipPathUnits="userSpaceOnUse"><path id="path5870" d="m4940 943h3v4h-3v-4z" clip-rule="evenodd" inkscape:connector-curvature="0"/></clipPath><clipPath id="clipPath7674" clipPathUnits="userSpaceOnUse"><path id="path7676" d="m4860 6723h3v4h-3v-4z" clip-rule="evenodd" inkscape:connector-curvature="0"/></clipPath><clipPath id="clipPath7688" clipPathUnits="userSpaceOnUse"><path id="path7690" d="m4981.1 6723.3h-332.48c9.41 21.46 22.85 40.74 39.36 56.91h253.76c16.52-16.17 29.96-35.45 39.36-56.91" inkscape:connector-curvature="0"/></clipPath><clipPath id="clipPath7694" clipPathUnits="userSpaceOnUse"><path id="path7696" d="m4862.5 6726.2v-5h5v5h-5" clip-rule="evenodd" inkscape:connector-curvature="0"/></clipPath><clipPath id="clipPath7808" clipPathUnits="userSpaceOnUse"><path id="path7810" d="m4950 6723h3v5h-3v-5z" clip-rule="evenodd" inkscape:connector-curvature="0"/></clipPath><clipPath id="clipPath8200" clipPathUnits="userSpaceOnUse"><path id="path8202" d="m5233 6381h52v1h-52v-1z" clip-rule="evenodd" inkscape:connector-curvature="0"/></clipPath><clipPath id="clipPath8502" clipPathUnits="userSpaceOnUse"><path id="path8504" d="m5487.2 6382h-254.23v57.86h226.27c11.7-17.81 21.16-37.23 27.96-57.86" inkscape:connector-curvature="0"/></clipPath><clipPath id="clipPath8508" clipPathUnits="userSpaceOnUse"><path id="path8510" d="m5320 6386.2v-10h7.5v5h-2.5v5h-5" clip-rule="evenodd" inkscape:connector-curvature="0"/></clipPath><clipPath id="clipPath8722" clipPathUnits="userSpaceOnUse"><path id="path8724" d="m5415 6406h3v3h-3v-3z" clip-rule="evenodd" inkscape:connector-curvature="0"/></clipPath><clipPath id="clipPath8796" clipPathUnits="userSpaceOnUse"><path id="path8798" d="m5410 6381h5v6h-5v-6z" clip-rule="evenodd" inkscape:connector-curvature="0"/></clipPath><clipPath id="clipPath9250" clipPathUnits="userSpaceOnUse"><path id="path9252" d="m4387.9 5057.6h-404.81v71.33h447.03c-11.79-25.22-25.95-49.08-42.22-71.33" inkscape:connector-curvature="0"/></clipPath><clipPath id="clipPath9256" clipPathUnits="userSpaceOnUse"><path id="path9258" d="m4147.5 5071.2v-5h2.5v5h-2.5" clip-rule="evenodd" inkscape:connector-curvature="0"/></clipPath><clipPath id="clipPath9270" clipPathUnits="userSpaceOnUse"><path id="path9272" d="m4150 5123h5v4h-5v-4z" clip-rule="evenodd" inkscape:connector-curvature="0"/></clipPath><clipPath id="clipPath9464" clipPathUnits="userSpaceOnUse"><path id="path9466" d="m4260 5128h3v1h-3v-1z" clip-rule="evenodd" inkscape:connector-curvature="0"/></clipPath><clipPath id="clipPath10790" clipPathUnits="userSpaceOnUse"><path id="path10792" d="m5131.4 5608.9h-300.09v56.9h321.09c-3.7-20.4-10.92-39.59-21-56.9" inkscape:connector-curvature="0"/></clipPath><clipPath id="clipPath10796" clipPathUnits="userSpaceOnUse"><path id="path10798" d="m4900 5611.2v-2.5h2.5v2.5h-2.5m2.5-2.5v-2.5h2.5v2.5h-2.5" clip-rule="evenodd" inkscape:connector-curvature="0"/></clipPath><clipPath id="clipPath10810" clipPathUnits="userSpaceOnUse"><path id="path10812" d="m4900 5608h3v1h-3v-1z" clip-rule="evenodd" inkscape:connector-curvature="0"/></clipPath><clipPath id="clipPath10824" clipPathUnits="userSpaceOnUse"><path id="path10826" d="m4990 5661h3v5h-3v-5z" clip-rule="evenodd" inkscape:connector-curvature="0"/></clipPath></defs><sodipodi:namedview id="namedview4" fit-margin-left="0" inkscape:zoom="2.5915821" borderopacity="1" inkscape:current-layer="g6333" inkscape:cx="-23.983064" inkscape:cy="-143.75253" inkscape:window-maximized="1" showgrid="false" fit-margin-right="0" bordercolor="#666666" inkscape:window-x="0" guidetolerance="10" objecttolerance="10" inkscape:window-y="24" fit-margin-bottom="0" inkscape:window-width="1680" inkscape:pageopacity="0" inkscape:pageshadow="2" pagecolor="#ffffff" gridtolerance="10" inkscape:window-height="1026" fit-margin-top="0"/><g id="g10" inkscape:label="ink_ext_XXXXXX" inkscape:groupmode="layer" transform="matrix(1.25 0 0 -1.25 -1417.4 1322.3)"><g id="g12" transform="scale(.1)"><g id="g1246"><g id="g1248" clip-path="url(#clipPath1250)"><g id="g1254" clip-path="url(#clipPath1256)"><g id="g1260" transform="scale(10)"><text id="text1262" font-size="10.073px" transform="matrix(1,0,0,-1,454.49,277.83)" font-family="Microsoft-Yi" fill="#be8ea2"><tspan id="tspan1264" y="0" x="0 4.180295" sodipodi:role="line">ob</tspan></text>
</g></g></g></g><g id="g1286"><g id="g1288" clip-path="url(#clipPath1290)"><g id="g1294" transform="scale(10)"><text id="text1296" font-size="10.073px" transform="matrix(1,0,0,-1,454.49,277.83)" font-family="Microsoft-Yi" fill="#bc798f"><tspan id="tspan1298" y="0" x="0 4.180295" sodipodi:role="line">ob</tspan></text>
</g></g></g><g id="g1300"><g id="g1302" clip-path="url(#clipPath1304)"><g id="g1308" transform="scale(10)"><text id="text1310" font-size="10.073px" transform="matrix(1,0,0,-1,454.49,277.83)" font-family="Microsoft-Yi" fill="#bd7c94"><tspan id="tspan1312" y="0" x="0 4.180295" sodipodi:role="line">ob</tspan></text>
</g></g></g><g id="g1374"><g id="g1376" clip-path="url(#clipPath1378)"><g id="g1382" clip-path="url(#clipPath1384)"><g id="g1388" transform="scale(10)"><text id="text1390" font-size="10.073px" transform="matrix(1,0,0,-1,462.85,277.83)" font-family="Microsoft-Yi" fill="#e7e1e7"><tspan id="tspan1392" y="0" x="0 1.7114334" sodipodi:role="line">le</tspan></text>
</g></g></g></g><g id="g1394"><g id="g1396" clip-path="url(#clipPath1398)"><g id="g1402" transform="scale(10)"><text id="text1404" font-size="10.073px" transform="matrix(1,0,0,-1,462.85,277.83)" font-family="Microsoft-Yi" fill="#e4dce3"><tspan id="tspan1406" y="0" x="0 1.7114334" sodipodi:role="line">le</tspan></text>
</g></g></g><g id="g2020"><g id="g2022" clip-path="url(#clipPath2024)"><g id="g2028" transform="scale(10)"><text id="text2030" font-size="10.073px" transform="matrix(1,0,0,-1,556.15,247)" font-family="Microsoft-Yi" fill="#bf5474"><tspan id="tspan2032" y="0" x="0 4.180295" sodipodi:role="line">e </tspan></text>
</g></g></g><g id="g2054"><g id="g2056" clip-path="url(#clipPath2058)"><g id="g2062" transform="scale(10)"><text id="text2064" font-size="10.073px" transform="matrix(1,0,0,-1,556.15,247)" font-family="Microsoft-Yi" fill="#c24768"><tspan id="tspan2066" y="0" x="0 4.180295" sodipodi:role="line">e </tspan></text>
</g></g></g><g id="g2068"><g id="g2070" clip-path="url(#clipPath2072)"><g id="g2076" clip-path="url(#clipPath2078)"><g id="g2082" transform="scale(10)"><text id="text2084" font-size="10.073px" transform="matrix(1,0,0,-1,556.15,247)" font-family="Microsoft-Yi" fill="#c2496a"><tspan id="tspan2086" y="0" x="0 4.180295" sodipodi:role="line">e </tspan></text>
</g></g></g></g><g id="g2550"><g id="g2552" clip-path="url(#clipPath2554)"><g id="g2558" transform="scale(10)"><text id="text2560" font-size="10.073px" transform="matrix(1,0,0,-1,413.74,129.22)" font-family="Microsoft-Yi" fill="#c196a8"><tspan id="tspan2562" y="0" x="0 6.3744998" sodipodi:role="line">Ma</tspan></text>
</g></g></g><g id="g2744"><g id="g2746" clip-path="url(#clipPath2748)"><g id="g2752" transform="scale(10)"><text id="text2754" font-size="10.073px" transform="matrix(1,0,0,-1,424.3,129.22)" font-family="Microsoft-Yi" fill="#c49eaf"><tspan id="tspan2756" y="0" x="0 2.5034406" sodipodi:role="line">rk</tspan></text>
</g></g></g><g id="g2758"><g id="g2760" clip-path="url(#clipPath2762)"><g id="g2766" transform="scale(10)"><text id="text2768" font-size="10.073px" transform="matrix(1,0,0,-1,430.56,129.22)" font-family="Microsoft-Yi" fill="#bc7a91"><tspan id="tspan2770" y="0" x="0 4.180295" sodipodi:role="line">et</tspan></text>
</g></g></g><g id="g2772"><g id="g2774" clip-path="url(#clipPath2776)"><g id="g2780" clip-path="url(#clipPath2782)"><g id="g2786" transform="scale(10)"><text id="text2788" font-size="10.073px" transform="matrix(1,0,0,-1,430.56,129.22)" font-family="Microsoft-Yi" fill="#bc7a92"><tspan id="tspan2790" y="0" x="0 4.180295" sodipodi:role="line">et</tspan></text>
</g></g></g></g><g id="g2972"><g id="g2974" clip-path="url(#clipPath2976)"><g id="g2980" transform="scale(10)"><text id="text2982" font-size="10.073px" transform="matrix(1,0,0,-1,441.26,129.22)" font-family="Microsoft-Yi" fill="#c8a6b5"><tspan id="tspan2984" y="0" x="0">S</tspan></text>
</g></g></g><g id="g3146"><g id="g3148" clip-path="url(#clipPath3150)"><g id="g3154" clip-path="url(#clipPath3156)"><g id="g3160" transform="scale(10)"><text id="text3162" font-size="10.073px" transform="matrix(1,0,0,-1,446.36,129.22)" font-family="Microsoft-Yi" fill="#d7c9d2"><tspan id="tspan3164" y="0" x="0 4.180295" sodipodi:role="line">pa</tspan></text>
</g></g></g></g><g id="g4330"><g id="g4332" clip-path="url(#clipPath4334)"><g id="g4338" transform="scale(10)"><text id="text4340" font-size="10.073px" transform="matrix(1,0,0,-1,502.21,175.89)" font-family="Microsoft-Yi" fill="#caafbc"><tspan id="tspan4342" y="0" x="0 4.180295" sodipodi:role="line">an</tspan></text>
</g></g></g><g id="g4344"><g id="g4346" clip-path="url(#clipPath4348)"><g id="g4352" clip-path="url(#clipPath4354)"><g id="g4358" transform="scale(10)"><text id="text4360" font-size="10.073px" transform="matrix(1,0,0,-1,502.21,175.89)" font-family="Microsoft-Yi" fill="#c9acba"><tspan id="tspan4362" y="0" x="0 4.180295" sodipodi:role="line">an</tspan></text>
</g></g></g></g><g id="g5158"><g id="g5160" clip-path="url(#clipPath5162)"><g id="g5166" clip-path="url(#clipPath5168)"><g id="g5172" transform="scale(10)"><text id="text5174" font-size="10.073px" transform="matrix(1,0,0,-1,519.18,175.89)" font-family="Microsoft-Yi" fill="#c091a5"><tspan id="tspan5176" y="0" x="0 5.1006002" sodipodi:role="line">Vo</tspan></text>
</g></g></g></g><g id="g5864"><g id="g5866" clip-path="url(#clipPath5868)"><g id="g5872" transform="scale(10)"><text id="text5874" font-size="10.073px" transform="matrix(1,0,0,-1,493.79,89.9)" font-family="Microsoft-Yi" fill="#c5a1b0"><tspan id="tspan5876" y="0" x="0 4.1811738" sodipodi:role="line">ou</tspan></text>
</g></g></g><g id="g7670"><g id="g7672" clip-path="url(#clipPath7674)"><g id="g7678" transform="scale(10)"><text id="text7680" font-size="10.443px" transform="matrix(1,0,0,-1,486.23,672.43)" font-family="Microsoft-Yi" fill="#bb7990"><tspan id="tspan7682" y="0" x="0 4.3336792" sodipodi:role="line">ob</tspan></text>
</g></g></g><g id="g7684"><g id="g7686" clip-path="url(#clipPath7688)"><g id="g7692" clip-path="url(#clipPath7694)"><g id="g7698" transform="scale(10)"><text id="text7700" font-size="10.443px" transform="matrix(1,0,0,-1,486.23,672.43)" font-family="Microsoft-Yi" fill="#bd7b93"><tspan id="tspan7702" y="0" x="0 4.3336792" sodipodi:role="line">ob</tspan></text>
</g></g></g></g><g id="g7804"><g id="g7806" clip-path="url(#clipPath7808)"><g id="g7812" transform="scale(10)"><text id="text7814" font-size="10.443px" transform="matrix(1,0,0,-1,494.9,672.43)" font-family="Microsoft-Yi" fill="#e5dde4"><tspan id="tspan7816" y="0" x="0 1.7744119" sodipodi:role="line">le</tspan></text>
</g></g></g><g id="g8196"><g id="g8198" clip-path="url(#clipPath8200)"><g id="g8204" transform="scale(10)"><text id="text8206" font-size="10.443px" transform="matrix(1,0,0,-1,523.03,638.3)" font-family="Microsoft-Yi" fill="#ca3351"><tspan id="tspan8208" y="0" x="0 4.8437552" sodipodi:role="line">Th</tspan></text>
</g></g></g><g id="g8498"><g id="g8500" clip-path="url(#clipPath8502)"><g id="g8506" clip-path="url(#clipPath8508)"><g id="g8512" transform="scale(10)"><text id="text8514" font-size="10.443px" transform="matrix(1,0,0,-1,532.21,638.3)" font-family="Microsoft-Yi" fill="#c24566"><tspan id="tspan8516" y="0" x="0 4.3336792" sodipodi:role="line">e </tspan></text>
</g></g></g></g><g id="g8718"><g id="g8720" clip-path="url(#clipPath8722)"><g id="g8726" transform="scale(10)"><text id="text8728" font-size="10.443px" transform="matrix(1,0,0,-1,541.13,638.3)" font-family="Microsoft-Yi" fill="#cdb5c2"><tspan id="tspan8730" y="0" x="0 5.288106" sodipodi:role="line">So</tspan></text>
</g></g></g><g id="g8792"><g id="g8794" clip-path="url(#clipPath8796)"><g id="g8800" transform="scale(10)"><text id="text8802" font-size="10.443px" transform="matrix(1,0,0,-1,541.13,638.3)" font-family="Microsoft-Yi" fill="#c4a0af"><tspan id="tspan8804" y="0" x="0 5.288106" sodipodi:role="line">So</tspan></text>
</g></g></g><g id="g9246"><g id="g9248" clip-path="url(#clipPath9250)"><g id="g9254" clip-path="url(#clipPath9256)"><g id="g9260" transform="scale(10)"><text id="text9262" font-size="10.443px" transform="matrix(1,0,0,-1,408.58,507.22)" font-family="Microsoft-Yi" fill="#c49eaf"><tspan id="tspan9264" y="0" x="0 2.595227" sodipodi:role="line">rk</tspan></text>
</g></g></g></g><g id="g9266"><g id="g9268" clip-path="url(#clipPath9270)"><g id="g9274" transform="scale(10)"><text id="text9276" font-size="10.443px" transform="matrix(1,0,0,-1,415.07,507.22)" font-family="Microsoft-Yi" fill="#bc7a92"><tspan id="tspan9278" y="0" x="0 4.3336792" sodipodi:role="line">et</tspan></text>
</g></g></g><g id="g9460"><g id="g9462" clip-path="url(#clipPath9464)"><g id="g9468" transform="scale(10)"><text id="text9470" font-size="10.443px" transform="matrix(1,0,0,-1,426.16,507.22)" font-family="Microsoft-Yi" fill="#c7a6b5"><tspan id="tspan9472" y="0" x="0">S</tspan></text>
</g></g></g><g id="g10786"><g id="g10788" clip-path="url(#clipPath10790)"><g id="g10794" clip-path="url(#clipPath10796)"><g id="g10800" transform="scale(10)"><text id="text10802" font-size="10.443px" transform="matrix(1,0,0,-1,490.28,561)" font-family="Microsoft-Yi" fill="#c9adba"><tspan id="tspan10804" y="0" x="0 4.3336792" sodipodi:role="line">an</tspan></text>
</g></g></g></g><g id="g10806"><g id="g10808" clip-path="url(#clipPath10810)"><g id="g10814" transform="scale(10)"><text id="text10816" font-size="10.443px" transform="matrix(1,0,0,-1,490.28,561)" font-family="Microsoft-Yi" fill="#cbb1bd"><tspan id="tspan10818" y="0" x="0 4.3336792" sodipodi:role="line">an</tspan></text>
</g></g></g><g id="g10820"><g id="g10822" clip-path="url(#clipPath10824)"><g id="g10828" transform="scale(10)"><text id="text10830" font-size="10.443px" transform="matrix(1,0,0,-1,498.95,561)" font-family="Microsoft-Yi" fill="#ce2d4a"><tspan id="tspan10832" y="0" x="0 4.3336792" sodipodi:role="line">d </tspan></text>
</g></g></g><g id="g6333" fill="#ed1d24"><path id="path12606" inkscape:connector-curvature="0" d="m11390 10369c-8.5-0.1-16.8 1.6-24.8 4.5l-1.4 1.2 0.9 1.6c0.9 0.7 1.9 1.1 3 1.2 1.3 0 2.5 0.1 3.7 0.2 3.5 0 6.8 0.7 10.2 1l0.8 1.4-0.5 0.7c-2.1 3.1-4.3 6.1-6.4 9.1-0.7 1-1.4 2-2.5 2.7-1.1 0.8-1.2 2.1-0.2 3 0.7 0.8 1.7 1.4 2.6 1.9 3.4 1.8 6.9 3.4 10.4 5.1l1.4 1c0.8 0.8 0.6 1.6-0.3 2.1-1 0.5-2.1 0.8-3.1 1.2l-1.6 0.8-0.3 1.5 0.9 1.2c1.4 1.8 2.8 3.5 4.1 5.3 0.7 1 1.4 1.4 2.6 1.4 3.3 0.1 6.7 0.3 10 0.5 2.6 0.2 5.1 0.4 7.6 0.5 6.1 0.3 12.1 0.5 18.1 0.9 7.2 0.5 14.4 1.1 21.6 1.8 4.9 0.5 9.8 1.2 14.6 2.5 5.8 1.6 11.4 3.6 17 5.8 1.4 0.6 2.7 1.4 3.9 2.3 1.6 1.3 3.3 2.7 4.9 4l1.7 0.7 0.6-1.9c-0.6-3.2-1.2-6.5-1.8-9.7-0.3-1.5-0.6-3.1-1-4.7-0.6-2.7-1.9-5.2-4-7.1l-17.1-15.9c-1.6-1.5-3.4-2.6-5.2-3.6-4.1-2.2-8.1-4.4-12-6.7-4.8-2.8-9.6-5.3-14.7-7.2-2.2-0.9-4.3-1.9-6.5-2.8-7.8-3.4-16-5.7-24.5-6.5-3.9-0.4-7.9-0.9-11.8-1h-0.9"/><path id="path12608" inkscape:connector-curvature="0" d="m11482 10559v2.1c-0.7 4.1-1.2 8.2-2.5 12.2-0.5 1.5-0.2 3 0.8 4.3 0.8 1.1 1.9 1.2 2.7 0.1 1-1.5 1.9-3 2.7-4.5 4.3-7.3 8.1-14.8 13-21.8l0.3-0.5c4.2-5.2 6.5-11.3 8.5-17.6 1.3-3.9 2.1-8 3-12 0.7-3.2 1.2-6.3 1.9-9.4 0.1-1 0.3-1.9 0.9-2.7v-2.1l-0.5-0.9c-1.9-3.1-3.9-6.2-5.8-9.3-2.3-3.7-4.5-7.4-6.8-11.2l-0.2-0.3-1.2-0.8-1 1-0.3 1.5c-0.9 6.4-3.5 12-7.5 17-3.4 4.2-7 8.4-10.4 12.6-4.3 5-8.5 10.2-12.7 15.3-3.6 4.2-6.8 8.7-9.7 13.4-0.8 1.4-1.7 2.7-2.6 4.1-0.6 1-0.5 1.7 0.6 2.4 0.8 0.5 1.7 1 2.7 1.4 1.1 0.5 2.2 0.4 3.2-0.4 1.5-1.1 3.1-2.2 4.7-3.2l1.7-0.3c0.5 0.7 0.5 1.7 0.6 2.6 0.4 3.9 0.8 7.7 1.3 11.5l0.6 2.1c0.9 1.1 2.1 1.3 3.3 0.6l2.1-1.7c1.7-1.6 3.4-3.3 5.1-5l1.5-0.5"/><path id="path12610" inkscape:connector-curvature="0" d="m11519 10463c-1 0.4-2 0.8-2.9 1.4l-0.2 2 2.3 2.2c0.9 0.7 2 1.1 3 0.4 1.1-0.7 2-1.6 1.9-3.1-0.6-5.4-9-1-4.1-2.9zm23.3-5.1-1.1 1.3c-1 0.9-2.3 1.6-3.9 2.2-1.3 0.6-2.6 1.1-3.8 1.5-1.5 0.4-2.4 1.3-2.9 2.9-0.5 1.7-1.3 3.5-2.6 5.4-1 1.5-2.2 2.5-3.8 2.9-1.7 0.5-3.5 1.1-5.8 1.9-1.1 0.3-2 0.4-2.9 0.3l-2-0.3c-2-0.2-4.1-0.5-6-1.1-1.1-0.3-2.2-0.6-3.3-0.9l-1.4-0.4c-2.7-0.7-4.9-1.8-6.9-3.4l-1.3-0.9c-3-2.1-6.7-4.3-11.1-5.1l-0.1-0.1-1.5-0.2c-0.9-0.1-1.7 0.4-1.9 1.2l1 2 0.7 0.3 0.5 0.3c4.6 2.4 7.8 4.8 10.4 7.7l1.1 2.2c0.4 2.8 0.3 5.3-0.4 7.7-0.3 1.2-0.7 2.4-1 3.5-0.5 1.5-0.9 3-1.3 4.5-0.4 1.3-1 2.4-2 3.3-1.8 1.7-3.1 3.1-4.3 4.5l-1.3 1.4c-4.2 4.9-8.5 10-12.7 15.1-2.9 3.5-5.8 7.2-8.7 10.7-2.3 2.9-4.6 5.8-6.9 8.7-1.1 1.2-2.3 2.5-3.9 3.9-2.8 2.5-5.4 4.7-8 6.7-2.3 1.8-4.6 3.6-6.8 5.3-1.1 0.9-2.3 1.7-3.4 2.6l-1.7 0.6c-1.1-0.1-2.5-0.2-3.8-0.4-1-0.1-1.2-0.3-1.2-1.2-0.2-1.9 0.2-3.3 1-4.5 2.2-3.4 4.5-6.7 6.7-10.1l2.6-3.8 0.3-0.7 0.1-1.1c-0.5-1.3-2.3-2.4-3.6-2.1l-1.4 0.2c-0.9 0-1.9-0.2-2.9-0.5l-0.7-0.1c-0.2-0.1-0.9-0.3-0.9-1.4v-2.1c-0.3-1.4 0-2.9 0.7-4.6l0.8-1.7c1.2-3 1.2-3 4.3-5.3l0.8-0.7 1-0.7 1.4-1.1 1-1.6-0.8-1.6-0.8-0.6-0.9-0.7c-1.2-1.3-2.6-1.9-4.4-1.9-1.3 0-2.6-0.4-4-1.1-1-0.5-1.1-0.9-0.9-1.9l0.6-1.9 0.6-1.5c1.6-3.9 3.4-8.1 5.5-11.9l0.1-0.1c0.3-0.4 0.8-1.2 0.2-2.2l-0.2-0.3h-0.3l-0.5-0.1-1.8 0.9-0.2 0.2-2.5 1.9c-1.1 0.9-2.3 1.8-3.4 2.6-4.9 3.7-10.1 7.9-16.4 13.2-4.1 3.5-7.9 7.3-11.3 11.4-1.1 1.3-2.3 2.6-3.7 3.9-1.9 2-4.3 3.3-7.1 3.9-3.4 0.8-7 1.7-10.7 2.6-0.9 0.3-1.8 0.3-2.8 0-1.3-0.4-2.5-0.8-3.8-1.1l-2.1-0.6-0.7-0.2-0.2-0.6 0.2-0.5 0.8-1.3c0.9-1.5 1.8-3 2.7-4.5 1.2-2 2.7-3.6 4.7-4.9 1.1-0.7 2.1-1.6 3.1-2.4l1-0.9 0.6-0.7 0.1-0.2 0.3-0.4-0.3-0.4-0.6-1-1.3-2.3-1-1.2-0.3-0.4c-0.8-0.9-1.8-1.4-3-1.4h-0.1c-1.5 0.1-3.1 0.1-4.5 0.1h-1.9-0.4-1.3l-0.4-0.3-0.2-0.9-0.4-1.2c-0.3-1.1-0.7-2.2-1.1-3.3l0.3-1.1 0.9-0.6 2.2-1.3c0.9-0.5 1.8-1 2.8-1.6l1-0.7 1.1-0.7-0.3-0.7-0.3-0.5-0.6-0.9c-1.2-1.7-2.5-3.3-3.7-4.9-0.9-1.1-1.4-2.3-1.6-3.6-0.2-1-0.1-1.3-0.1-1.4l1-0.1h0.4l2.6 0.1c3.3 0.1 6.6 0.2 9.8 0.3h0.5c0.7 0 1.8-0.1 2.9-0.5l1.8-0.8c1.8-0.8 3.8-1.6 5.6-2.5 1.1-0.5 2-0.6 3-0.4 2.7 0.8 5.4 1.5 8.4 2.5 1 0.3 1.1 0.4 0.8 1.5-0.6 2.8-1.2 5.1-1.8 7.1-0.3 1-0.2 1.9 0.4 2.7l0.9 1.7 0.8 1.3 0.9 1c0.8 0.6 1.6 0.9 2.7 0.9h1c1-0.2 1.9-0.3 2.8-0.4 1.5-0.2 2.9-0.4 4.4-0.6 3-0.4 5.6-1.4 8.2-3.1 5.7-3.9 11.8-7.9 18.8-12.4 5.5-3.5 11.2-7.1 16.7-10.5l4.9-3.1 2-1.2 1.4-0.8c0.9-0.6 0.9-1.3 0.8-1.8l-0.1-0.1-0.1-0.2c-0.6-0.7-1.5-1-2.5-0.8l-1.6 0.7-1.9 1c-2.5 1.3-5 2.7-7.5 4.1-3.3 1.9-6.5 3.8-9.4 5.6l-0.7 0.4c-1.9 1.1-3.8 2.4-5.6 3.8-3.5 2.9-7.2 5.6-10.8 8.3-1.8 1.3-3.7 2.7-5.5 4.1-0.8 0.6-1.7 0.9-2.6 1.1-2 0.3-3.9 0.6-5.8 0.9-1.5 0.3-2.9 0.5-4.4 0.7l-1.5 0.1-1.4-1-0.4-1.3c0.7-2.3 0.9-4.7 1.2-7 0.1-1.3 0.3-2.7 0.5-4.1 0.1-0.8 0-1.9-1.6-2.3l-1.5-0.4-1.4-0.4c-8.2-2.1-16.4-4.3-24.5-6.5-1.1-0.2-2.1-0.5-3.2-0.8-1.8-0.5-3.6-1-5.5-1.5-1.7-0.4-3-2.4-2.9-3.9v-1.8l0.1-1.7c0.1-1.3 0.6-2.3 1.6-3.2 1.9-1.5 3.6-2.5 5.4-3.1 1.3-0.5 2.5-1 3.7-1.6l0.6-0.2 0.8-0.7 0.3-0.2 0.6-0.5-0.5-0.6-1.8-0.9h-0.5-0.4-0.4c-4.9 0-9.9-0.1-14.6-0.5-2.5-0.1-4.4-0.7-6.1-1.7l-1-0.6c-2.7-1.6-5.5-3.2-8.3-4.8-1.8-1-3.2-2.4-4-4.3-0.5-1-0.5-1.3-0.5-1.4 0 0 0.2-0.1 1.2-0.4 1.3-0.3 2.5-0.6 3.8-0.9 1.9-0.5 3.8-1 5.7-1.4 3.6-1 7.9-2 12.3-2.8 5.3-0.8 9.5-1.6 13.4-2.3 5.7-1.2 11-1.6 16.3-1.4h2.5 1c2.3 0.1 4.5 0.1 6.7 0.2 3 0 6 0.1 8.9 0.1 2.3 0 4.4-0.1 6.3-0.1h2.7 0.5c4 0.1 7.9 0.2 11.8 0.3 4.7 0.1 8.5 0.5 12 1.2 1.7 0.4 3.4 0.7 5.1 1.1 1.6 0.3 3.2 0.6 4.8 1l1.8 0.3c1 0.2 1.9 0.4 2.9 0.6 3.9 0.9 7.5 2.7 10.4 4.3 3.6 2 7.2 3.9 10.8 5.5 1.4 0.7 2.8 1.5 4.2 2.4l1.2 0.7c1.1 0.6 2.1 1.6 2.8 3l0.7 1.4c0.6 1 1.1 2 1.6 3l0.6 2.6-0.3 6.1v0.4l-0.1 0.7c0.1 0.9 0.7 1.7 1.7 1.8 1.4 0.2 2.4-0.5 2.6-1.8 0.5-1.9 0.9-4 0.3-6.2-0.3-1.5-0.6-2.7-0.7-3.8-0.2-1.6-0.8-3.1-1.7-4.8l-0.8-1.4-0.7-1.2-0.7-1.3v-0.1l0.2-0.2 0.8-0.3 2.3-0.2c1.6-0.2 3.3-0.5 5-0.5l1.5 0.1 1.5 0.2 2 0.2c1.2 0.1 2.4 0.5 3.5 1.2l0.4 0.2c0.9 0.5 1.9 1.1 2.9 1.6 2.1 1.1 4.1 2.5 6.2 4.4 3.2 3.1 6.5 6.1 9.7 9.1l1.9 1.7c1 0.7 2 1.1 3 1.2l1.4 0.1c1.1 0.1 2.3 0.2 3.4 0.2 1.5 0 2.8-0.2 4-0.6l1.4-0.1 0.2 0.1v0.3"/><path id="path12612" inkscape:connector-curvature="0" d="m11297 10276h-0.4l-10.8 27.5c-0.6 1.4-1.4 2.2-2.9 2.2h-0.9v0.7h10.5v-0.7h-0.9c-1.5 0-2.4-0.5-1.9-1.8l8.3-21.6 7.2 18.4c1.8 4.4 1.3 5-1.4 5h-0.6v0.7h8.6v-0.7h-0.3c-2.1 0-3-0.6-4.6-4.5l-9.9-25.2"/><path id="path12614" inkscape:connector-curvature="0" d="m11323 10304c0 1.5-0.7 2-2.3 2h-1.3v0.7h21.6v-6.1h-0.3c-0.6 3.3-2.5 4.8-6.9 4.8h-7v-11.9h4.6c2.5 0 4.8 0.3 5.4 3.7h0.3v-8.6h-0.3c-0.6 3.4-2.9 3.7-5.4 3.7h-4.6v-11.9c0-1.6 0.9-1.9 2.3-1.9h6.5c3.9 0 5.8 1.9 6.4 5.4h0.3v-6.7h-22.9v0.7h1.3c1.6 0 2.3 0.5 2.3 2v24.1"/><path id="path12616" inkscape:connector-curvature="0" d="m11360 10292h1.3c5 0 8.8 1.1 8.8 6.9 0 5-3.1 6.8-8.7 6.5h-1.4v-13.4zm2.1 14.5c6.3 0 12-0.8 12-7.3 0-3.8-3-6.8-7.8-7.5 4.1-0.8 6.4-3 7.6-6.9 1.5-5.4 2.2-7.6 6.6-7.4l0.2-0.5c-1.2-0.3-2.3-0.4-3.3-0.4-4.4 0-6.5 2.8-7.7 7.9-1.3 5.2-4.3 6.6-8.7 6.6h-1v-11c0-1.8 0.6-2.3 2.6-2.3h1.3v-0.7h-11.3v0.7h1.3c1.7 0 2.3 0.5 2.3 2v24.1c0 1.5-0.6 2-2.3 2h-1.3v0.7h9.5"/><path id="path12618" inkscape:connector-curvature="0" d="m11396 10280c0-1.7 1-2 4.8-2h0.7c6.4 0 12.4 3.7 12.4 14 0 10.7-7.7 13.4-14.5 13.4h-3.4v-25.4zm4.4 26.5c11.6 0 17.8-5.4 17.8-14.5 0-8.9-6.1-15-15.8-15h-13.7v0.7h1.3c1.6 0 2.2 0.5 2.2 2v24.1c0 1.5-0.6 2-2.2 2h-1.3v0.7h11.7"/><path id="path12620" inkscape:connector-curvature="0" d="m11431 10304c0 1.5-0.6 2-2.3 2h-1.3v0.7h21.7v-6.1h-0.4c-0.5 3.3-2.5 4.8-6.9 4.8h-7v-11.9h4.7c2.5 0 4.8 0.3 5.3 3.7h0.4v-8.6h-0.4c-0.6 3.4-2.8 3.7-5.3 3.7h-4.7v-11.9c0-1.6 0.9-1.9 2.3-1.9h6.6c3.8 0 5.8 1.9 6.3 5.4h0.4v-6.7h-23v0.7h1.3c1.7 0 2.3 0.5 2.3 2v24.1"/><path id="path12622" inkscape:connector-curvature="0" d="m11475 10284c0 2.9-1.5 5.3-6 6.8l-3.4 1.1c-4.4 1.6-6.2 4.3-6.2 7.6 0 5.1 4 7.9 9.2 7.9 3.6 0 5.9-0.8 7.9-2v-4.4h-0.3c-1.7 4.1-4.4 5.2-7.5 5.2-3.3 0-5.8-2.3-5.8-5.1 0-2.4 0.9-4.4 4.5-5.6l2.7-1c3.5-1.2 8.4-3 8.4-8.8 0-5.4-3.7-9-9.9-9-3.8 0-7 0.8-9.5 2.5v5h0.4c2.3-6 5.7-6.2 8.6-6.2 4.7 0 6.9 2.7 6.9 6"/><path id="path12624" inkscape:connector-curvature="0" d="m11499 10277c6.7 5.8 15.2 13.1 15.2 19.5 0 3.2-1.7 5.1-4.9 5.1-3.4 0-5.8-2.6-6.1-5.9h-0.6c0 4.3 3.3 7.8 8.4 7.8 3.9 0 7.1-2.2 7.1-6.2 0-6.6-7.8-13-15.2-17.6h8.8c4.4 0 5.9 0.4 6.8 4.8h0.4v-7.7h-19.8l-0.1 0.2"/><path id="path12626" inkscape:connector-curvature="0" d="m11538 10303c-3.2 0-6.5-3.3-6.5-12.8s3.3-12.6 6.5-12.6c3.1 0 6.4 3.1 6.4 12.6s-3.3 12.8-6.4 12.8zm0-26.3c-6.3 0-10.3 4.9-10.3 13.5 0 8.7 4.4 13.7 10.3 13.7 6.7 0 10.3-5.1 10.3-13.7 0-8.7-4.5-13.5-10.3-13.5"/><path id="path12628" inkscape:connector-curvature="0" d="m11562 10300c-1.4-0.2-3.4 0-4.7 0.2v0.4c2.3 0.4 5 1.3 7.4 2.7h0.6v-22.6c0-2.6 0.5-3.4 2.9-3.4h1.2v-0.7h-12v0.7h1.3c2.4 0 3.3 0.7 3.3 3.3v19.4"/><path id="path12630" inkscape:connector-curvature="0" d="m11582 10285c0-4.3 2.3-7.9 5.6-7.9 3.7 0 5.9 3.4 5.9 8.1 0 4.4-2.1 7.5-5.3 7.5-3.9 0-6.2-3.5-6.2-7.7zm12.6 18.7c-7.8-2.9-11.1-7.5-12.1-13.9 0.8 2.1 3 4.4 6.6 4.4 3.5 0 8.2-2.1 8.2-8.8 0-5.2-4.2-9.2-9.4-9.2-6.2 0-9.5 4.5-9.5 10.8 0 9.3 7.7 15.5 16 17.3l0.2-0.6"/></g><g id="g12636" transform="scale(10)"><text id="text12638" font-size="6.9793px" transform="matrix(1,0,0,-1,979.86,976.48)" font-family="GTPressuraMonoTrial" fill="#ffffff"><tspan id="tspan12640" y="0" x="0 4.676774 9.3525715 14.029346 18.705143 23.381916 28.058691 32.734489 37.411263 42.087059 46.763832 51.440609 56.116405 60.793179 117.342 122.01878 126.69458 131.37135 136.04715 140.72392 145.4007 150.07649 154.75327 159.42906 164.10583 168.78261 173.4584" sodipodi:role="line">R-20 G-16 B-49R-255 G-0 B-0</tspan></text>
</g></g></g></svg>
